<svg fill="none" height="20" viewBox="0 0 20 20" width="20" xmlns="http://www.w3.org/2000/svg"><path clip-rule="evenodd" d="m19.1667 10.0002c0 5.0626-4.1041 9.1666-9.1667 9.1666-5.06257 0-9.166626-4.104-9.166626-9.1666 0-5.06265 4.104056-9.166704 9.166626-9.166704 5.0626 0 9.1667 4.104054 9.1667 9.166704zm-9.99999 0c0-.46027.37309-.83337.83329-.83337.4603 0 .8334.3731.8334.83337v3.3333c0 .4602-.3731.8333-.8334.8333-.4602 0-.83329-.3731-.83329-.8333zm.83329-2.50004c.4603 0 .8334-.37309.8334-.83333s-.3731-.83333-.8334-.83333c-.4602 0-.83329.37309-.83329.83333s.37309.83333.83329.83333z" fill="#000" fill-rule="evenodd"/></svg>