<svg fill="none" height="32" viewBox="0 0 33 32" width="33" xmlns="http://www.w3.org/2000/svg"><g fill="#b9b9b9"><path d="m28.5186 29.7674h-26.90232c-.29606 0-.57999.1176-.789329.327-.209343.2093-.326951.4933-.326951.7893 0 .2961.117608.58.326951.7893.209339.2094.493269.327.789329.327h26.90232c.2961 0 .58-.1176.7893-.327.2094-.2093.327-.4932.327-.7893 0-.296-.1176-.58-.327-.7893-.2093-.2094-.4932-.327-.7893-.327z"/><path d="m27.6628 0h-7.5907c-1.2829 0-2.5133.509633-3.4204 1.41679-.9072.90715-1.4168 2.13751-1.4168 3.42042v1.25767h-9.50327c-1.28291 0-2.51327.50964-3.42043 1.41679-.90715.90715-1.416782 2.13752-1.416782 3.42043v12.3423c0 1.2829.509632 2.5133 1.416782 3.4204.90716.9072 2.13752 1.4168 3.42043 1.4168h18.67167c1.2829 0 2.5132-.5096 3.4204-1.4168.9071-.9071 1.4168-2.1375 1.4168-3.4204v-.8818c.951-.3282 1.776-.9446 2.3602-1.7636s.8986-1.7997.8993-2.8057v-12.98609c0-1.28291-.5096-2.51327-1.4168-3.42042-.9071-.907157-2.1375-1.41679-3.4204-1.41679zm-3.2595 25.8791h-18.67167c-.6908 0-1.3533-.2744-1.84177-.7629s-.76288-1.151-.76288-1.8418v-12.3423c0-.6908.27441-1.35331.76288-1.84177.48847-.48847 1.15097-.76289 1.84177-.76289h9.50327v9.49586c0 1.2829.5096 2.5132 1.4168 3.4204.9071.9071 2.1375 1.4168 3.4204 1.4168h6.9358v.6139c0 .6908-.2744 1.3533-.7629 1.8418-.4884.4885-1.151.7629-1.8417.7629zm5.8641-8.0558c0 .6908-.2744 1.3533-.7628 1.8417-.4885.4885-1.151.7629-1.8418.7629h-7.5907c-.6908 0-1.3533-.2744-1.8418-.7629-.4884-.4884-.7629-1.1509-.7629-1.8417v-12.98609c0-.6908.2745-1.3533.7629-1.84177.4885-.48846 1.151-.76288 1.8418-.76288h7.5907c.6908 0 1.3533.27442 1.8418.76288.4884.48847.7628 1.15097.7628 1.84177z"/></g></svg>