<svg fill="none" height="130" viewBox="0 0 113 130" width="113" xmlns="http://www.w3.org/2000/svg"><g fill="#ffb38b" opacity=".2"><path d="m-2.89291 34.3243c0 23.3718 19.02181 42.3936 42.39361 42.3936s42.3936-19.0218 42.3936-42.3936-19.0218-42.39359-42.3936-42.39359-42.39361 19.02179-42.39361 42.39359z"/><path d="m-23.7233 51.2649c-1.5264-5.6951-9.5831-10.7423-9.5831-16.9416 0-6.192 8.0568-11.2464 9.5831-16.9416 1.584-5.9183-2.8369-14.30632.1656-19.46231 3.024-5.25607 12.5353-5.60167 16.79047-9.86409 4.25521-4.2552 4.60798-13.7665 9.86405-16.7904 5.16244-3.0024 13.55048 1.4184 19.46238-.1656 5.6951-1.5264 10.7423-9.5832 16.9416-9.5832 6.192 0 11.2464 8.0568 16.9416 9.5832 5.9183 1.584 14.3063-2.8369 19.4623.1656 5.2561 3.0239 5.6017 12.5352 9.8641 16.7904 4.2552 4.25524 13.7665 4.60802 16.7902 9.86409 3.003 5.16244-1.418 13.55051.166 19.46231 1.526 5.6952 9.583 10.7424 9.583 16.9416 0 6.1921-8.057 11.2465-9.583 16.9416-1.584 5.9184 2.837 14.3064-.166 19.4624-3.0237 5.256-12.535 5.6016-16.7902 9.864-4.2552 4.2553-4.608 13.7665-9.8641 16.7905-5.1624 3.0022-13.5505-1.4184-19.4623.1656-5.6952 1.5264-10.7424 9.5836-16.9416 9.5836-6.1921 0-11.2465-8.0573-16.9416-9.5836-5.9184-1.584-14.30639 2.8366-19.46238-.1656-5.25607-3.024-5.60165-12.5352-9.86405-16.7905-4.25517-4.2552-13.76647-4.608-16.79047-9.864-3.0024-5.1625 1.4184-13.5505-.1656-19.4624zm63.2236 32.8256c27.4471 0 49.7664-22.3193 49.7664-49.7664 0-27.44712-22.3193-49.7664-49.7664-49.7664s-49.7664 22.31928-49.7664 49.7664c0 27.4471 22.3193 49.7664 49.7664 49.7664z"/><path d="m58.9478 102.746 13.2193 25.049c1.5264 2.909 5.8031 2.506 6.7824-.626l5.0688-16.402 16.4017 5.091c3.132.957 5.882-2.34 4.349-5.256l-14.1412-26.8209c-.3888.2376-.6984.4824-.9576.72-1.0511 1.0656-1.9727 3.4991-2.8728 5.8464-1.6416 4.2912-3.4991 9.1585-8.1071 11.8365-2.1167 1.217-4.5505 1.808-7.4808 1.808-2.2824 0-4.5359-.353-6.6888-.699-1.8648-.273-3.5928-.554-5.0472-.554-.1872 0-.3528 0-.5184.021z"/><path d="m-21.4185 115.849 16.40151-5.09 5.0688012 16.402c.9791988 3.132 5.2560688 3.542 6.7824288.626l13.21926-25.049c-.1656-.022-.3312-.022-.5184-.022-1.4544 0-3.1897.274-5.0473.569-2.16.331-4.4063.684-6.68874.684-2.93032 0-5.36408-.59-7.480807-1.807-4.586433-2.6713-6.472773-7.5384-8.107143-11.8369-.8856-2.34-1.82158-4.7736-2.87281-5.8465-.2592-.2376-.5688-.4824-.9576-.72l-14.1408 26.8204c-1.5264 2.909 1.2168 6.214 4.3488 5.256z"/></g></svg>