<svg fill="none" height="1218" viewBox="0 0 375 1218" width="375" xmlns="http://www.w3.org/2000/svg" xmlns:xlink="http://www.w3.org/1999/xlink"><filter id="a" color-interpolation-filters="sRGB" filterUnits="userSpaceOnUse" height="1922" width="1082" x="-354" y="-353"><feFlood flood-opacity="0" result="BackgroundImageFix"/><feBlend in="SourceGraphic" in2="BackgroundImageFix" mode="normal" result="shape"/><feGaussianBlur result="effect1_foregroundBlur_1246_295092" stdDeviation=".5"/></filter><filter id="b" color-interpolation-filters="sRGB" filterUnits="userSpaceOnUse" height="664.457" width="862.704" x="-27.2885" y="-327.256"><feFlood flood-opacity="0" result="BackgroundImageFix"/><feBlend in="SourceGraphic" in2="BackgroundImageFix" mode="normal" result="shape"/><feGaussianBlur result="effect1_foregroundBlur_1246_295092" stdDeviation="40"/></filter><filter id="c" color-interpolation-filters="sRGB" filterUnits="userSpaceOnUse" height="387.314" width="476.773" x="102.082" y="-178.535"><feFlood flood-opacity="0" result="BackgroundImageFix"/><feBlend in="SourceGraphic" in2="BackgroundImageFix" mode="normal" result="shape"/><feGaussianBlur result="effect1_foregroundBlur_1246_295092" stdDeviation="40"/></filter><filter id="d" color-interpolation-filters="sRGB" filterUnits="userSpaceOnUse" height="612.261" width="850.695" x="-488.919" y="-375.19"><feFlood flood-opacity="0" result="BackgroundImageFix"/><feBlend in="SourceGraphic" in2="BackgroundImageFix" mode="normal" result="shape"/><feGaussianBlur result="effect1_foregroundBlur_1246_295092" stdDeviation="40"/></filter><filter id="e" color-interpolation-filters="sRGB" filterUnits="userSpaceOnUse" height="363.854" width="471.378" x="-270.292" y="-201.162"><feFlood flood-opacity="0" result="BackgroundImageFix"/><feBlend in="SourceGraphic" in2="BackgroundImageFix" mode="normal" result="shape"/><feGaussianBlur result="effect1_foregroundBlur_1246_295092" stdDeviation="40"/></filter><clipPath id="f"><path d="m0 0h375v1218h-375z"/></clipPath><g clip-path="url(#f)"><path d="m0 0h375v1218h-375z" fill="#f9f7f3"/><g filter="url(#a)"><g fill="#5c5c9b" opacity=".2"><circle cx="353.333" cy="-.352051" r="1" transform="matrix(0 1 -1 0 352.980949 -353.685051)"/><circle cx="353.333" cy="25.5352" r="1" transform="matrix(0 1 -1 0 378.8682 -327.7978)"/><circle cx="353.333" cy="51.4226" r="1" transform="matrix(0 1 -1 0 404.7556 -301.9104)"/><circle cx="353.333" cy="77.3098" r="1" transform="matrix(0 1 -1 0 430.6428 -276.0232)"/><circle cx="353.333" cy="103.197" r="1" transform="matrix(0 1 -1 0 456.53 -250.136)"/><circle cx="353.333" cy="129.085" r="1" transform="matrix(0 1 -1 0 482.418 -224.248)"/><circle cx="353.333" cy="154.972" r="1" transform="matrix(0 1 -1 0 508.305 -198.361)"/><circle cx="353.333" cy="180.859" r="1" transform="matrix(0 1 -1 0 534.192 -172.474)"/><circle cx="353.333" cy="206.747" r="1" transform="matrix(0 1 -1 0 560.08 -146.586)"/><circle cx="353.333" cy="232.634" r="1" transform="matrix(0 1 -1 0 585.967 -120.699)"/><circle cx="353.333" cy="258.521" r="1" transform="matrix(0 1 -1 0 611.854 -94.812)"/><circle cx="353.333" cy="284.408" r="1" transform="matrix(0 1 -1 0 637.741 -68.925)"/><circle cx="353.333" cy="310.296" r="1" transform="matrix(0 1 -1 0 663.629 -43.037)"/><circle cx="353.333" cy="336.183" r="1" transform="matrix(0 1 -1 0 689.516 -17.15)"/><circle cx="353.333" cy="362.071" r="1" transform="matrix(0 1 -1 0 715.404 8.738)"/><circle cx="353.333" cy="387.958" r="1" transform="matrix(0 1 -1 0 741.291 34.625)"/><circle cx="353.333" cy="413.845" r="1" transform="matrix(0 1 -1 0 767.178 60.512)"/><circle cx="353.333" cy="439.732" r="1" transform="matrix(0 1 -1 0 793.065 86.399)"/><circle cx="353.333" cy="465.62" r="1" transform="matrix(0 1 -1 0 818.953 112.287)"/><circle cx="353.333" cy="491.507" r="1" transform="matrix(0 1 -1 0 844.84 138.174)"/><circle cx="353.333" cy="517.395" r="1" transform="matrix(0 1 -1 0 870.728 164.062)"/><circle cx="353.333" cy="543.282" r="1" transform="matrix(0 1 -1 0 896.615 189.949)"/><circle cx="353.333" cy="569.169" r="1" transform="matrix(0 1 -1 0 922.502 215.836)"/><circle cx="353.333" cy="595.056" r="1" transform="matrix(0 1 -1 0 948.389 241.723)"/><circle cx="353.333" cy="620.944" r="1" transform="matrix(0 1 -1 0 974.277 267.611)"/><circle cx="353.333" cy="646.831" r="1" transform="matrix(0 1 -1 0 1000.164 293.498)"/><circle cx="353.333" cy="672.719" r="1" transform="matrix(0 1 -1 0 1026.052 319.386)"/><circle cx="353.333" cy="698.606" r="1" transform="matrix(0 1 -1 0 1051.939 345.273)"/><circle cx="353.333" cy="724.493" r="1" transform="matrix(0 1 -1 0 1077.826 371.16)"/><circle cx="353.333" cy="750.38" r="1" transform="matrix(0 1 -1 0 1103.713 397.047)"/><circle cx="353.333" cy="776.268" r="1" transform="matrix(0 1 -1 0 1129.601 422.935)"/><circle cx="353.333" cy="802.155" r="1" transform="matrix(0 1 -1 0 1155.488 448.822)"/><circle cx="353.333" cy="828.042" r="1" transform="matrix(0 1 -1 0 1181.375 474.709)"/><circle cx="353.333" cy="853.93" r="1" transform="matrix(0 1 -1 0 1207.263 500.597)"/><circle cx="353.333" cy="879.817" r="1" transform="matrix(0 1 -1 0 1233.15 526.484)"/><circle cx="353.333" cy="905.704" r="1" transform="matrix(0 1 -1 0 1259.037 552.371)"/><circle cx="353.333" cy="931.592" r="1" transform="matrix(0 1 -1 0 1284.925 578.259)"/><circle cx="353.333" cy="957.479" r="1" transform="matrix(0 1 -1 0 1310.812 604.146)"/><circle cx="353.333" cy="983.366" r="1" transform="matrix(0 1 -1 0 1336.699 630.033)"/><circle cx="353.333" cy="1009.25" r="1" transform="matrix(0 1 -1 0 1362.583 655.917)"/><circle cx="353.333" cy="1035.14" r="1" transform="matrix(0 1 -1 0 1388.473 681.807)"/><circle cx="353.333" cy="1061.03" r="1" transform="matrix(0 1 -1 0 1414.363 707.697)"/><circle cx="353.333" cy="1086.92" r="1" transform="matrix(0 1 -1 0 1440.253 733.587)"/><circle cx="353.333" cy="1112.8" r="1" transform="matrix(0 1 -1 0 1466.133 759.467)"/><circle cx="353.333" cy="1138.69" r="1" transform="matrix(0 1 -1 0 1492.023 785.357)"/><circle cx="353.333" cy="1164.58" r="1" transform="matrix(0 1 -1 0 1517.913 811.247)"/><circle cx="353.333" cy="1190.46" r="1" transform="matrix(0 1 -1 0 1543.793 837.127)"/><circle cx="353.333" cy="1216.35" r="1" transform="matrix(0 1 -1 0 1569.683 863.017)"/><circle cx="327.744" cy="-.352051" r="1" transform="matrix(0 1 -1 0 327.391949 -328.096051)"/><circle cx="327.744" cy="25.5352" r="1" transform="matrix(0 1 -1 0 353.2792 -302.2088)"/><circle cx="327.744" cy="51.4226" r="1" transform="matrix(0 1 -1 0 379.1666 -276.3214)"/><circle cx="327.744" cy="77.3098" r="1" transform="matrix(0 1 -1 0 405.0538 -250.4342)"/><circle cx="327.744" cy="103.197" r="1" transform="matrix(0 1 -1 0 430.941 -224.547)"/><circle cx="327.744" cy="129.085" r="1" transform="matrix(0 1 -1 0 456.829 -198.659)"/><circle cx="327.744" cy="154.972" r="1" transform="matrix(0 1 -1 0 482.716 -172.772)"/><circle cx="327.744" cy="180.859" r="1" transform="matrix(0 1 -1 0 508.603 -146.885)"/><circle cx="327.744" cy="206.747" r="1" transform="matrix(0 1 -1 0 534.491 -120.997)"/><circle cx="327.744" cy="232.634" r="1" transform="matrix(0 1 -1 0 560.378 -95.11)"/><circle cx="327.744" cy="258.521" r="1" transform="matrix(0 1 -1 0 586.265 -69.223)"/><circle cx="327.744" cy="284.408" r="1" transform="matrix(0 1 -1 0 612.152 -43.336)"/><circle cx="327.744" cy="310.296" r="1" transform="matrix(0 1 -1 0 638.04 -17.448)"/><circle cx="327.744" cy="336.183" r="1" transform="matrix(0 1 -1 0 663.927 8.439)"/><circle cx="327.744" cy="362.071" r="1" transform="matrix(0 1 -1 0 689.815 34.327)"/><circle cx="327.744" cy="387.958" r="1" transform="matrix(0 1 -1 0 715.702 60.214)"/><circle cx="327.744" cy="413.845" r="1" transform="matrix(0 1 -1 0 741.589 86.101)"/><circle cx="327.744" cy="439.732" r="1" transform="matrix(0 1 -1 0 767.476 111.988)"/><circle cx="327.744" cy="465.62" r="1" transform="matrix(0 1 -1 0 793.364 137.876)"/><circle cx="327.744" cy="491.507" r="1" transform="matrix(0 1 -1 0 819.251 163.763)"/><circle cx="327.744" cy="517.395" r="1" transform="matrix(0 1 -1 0 845.139 189.651)"/><circle cx="327.744" cy="543.282" r="1" transform="matrix(0 1 -1 0 871.026 215.538)"/><circle cx="327.744" cy="569.169" r="1" transform="matrix(0 1 -1 0 896.913 241.425)"/><circle cx="327.744" cy="595.056" r="1" transform="matrix(0 1 -1 0 922.8 267.312)"/><circle cx="327.744" cy="620.944" r="1" transform="matrix(0 1 -1 0 948.688 293.2)"/><circle cx="327.744" cy="646.831" r="1" transform="matrix(0 1 -1 0 974.575 319.087)"/><circle cx="327.744" cy="672.719" r="1" transform="matrix(0 1 -1 0 1000.463 344.975)"/><circle cx="327.744" cy="698.606" r="1" transform="matrix(0 1 -1 0 1026.35 370.862)"/><circle cx="327.744" cy="724.493" r="1" transform="matrix(0 1 -1 0 1052.237 396.749)"/><circle cx="327.744" cy="750.38" r="1" transform="matrix(0 1 -1 0 1078.124 422.636)"/><circle cx="327.744" cy="776.268" r="1" transform="matrix(0 1 -1 0 1104.012 448.524)"/><circle cx="327.744" cy="802.155" r="1" transform="matrix(0 1 -1 0 1129.899 474.411)"/><circle cx="327.744" cy="828.042" r="1" transform="matrix(0 1 -1 0 1155.786 500.298)"/><circle cx="327.744" cy="853.93" r="1" transform="matrix(0 1 -1 0 1181.674 526.186)"/><circle cx="327.744" cy="879.817" r="1" transform="matrix(0 1 -1 0 1207.561 552.073)"/><circle cx="327.744" cy="905.704" r="1" transform="matrix(0 1 -1 0 1233.448 577.96)"/><circle cx="327.744" cy="931.592" r="1" transform="matrix(0 1 -1 0 1259.336 603.848)"/><circle cx="327.744" cy="957.479" r="1" transform="matrix(0 1 -1 0 1285.223 629.735)"/><circle cx="327.744" cy="983.366" r="1" transform="matrix(0 1 -1 0 1311.11 655.622)"/><circle cx="327.744" cy="1009.25" r="1" transform="matrix(0 1 -1 0 1336.994 681.506)"/><circle cx="327.744" cy="1035.14" r="1" transform="matrix(0 1 -1 0 1362.884 707.396)"/><circle cx="327.744" cy="1061.03" r="1" transform="matrix(0 1 -1 0 1388.774 733.286)"/><circle cx="327.744" cy="1086.92" r="1" transform="matrix(0 1 -1 0 1414.664 759.176)"/><circle cx="327.744" cy="1112.8" r="1" transform="matrix(0 1 -1 0 1440.544 785.056)"/><circle cx="327.744" cy="1138.69" r="1" transform="matrix(0 1 -1 0 1466.434 810.946)"/><circle cx="327.744" cy="1164.58" r="1" transform="matrix(0 1 -1 0 1492.324 836.836)"/><circle cx="327.744" cy="1190.46" r="1" transform="matrix(0 1 -1 0 1518.204 862.716)"/><circle cx="327.744" cy="1216.35" r="1" transform="matrix(0 1 -1 0 1544.094 888.606)"/><circle cx="302.154" cy="-.352051" r="1" transform="matrix(0 1 -1 0 301.801949 -302.506051)"/><circle cx="302.154" cy="25.5352" r="1" transform="matrix(0 1 -1 0 327.6892 -276.6188)"/><circle cx="302.154" cy="51.4226" r="1" transform="matrix(0 1 -1 0 353.5766 -250.7314)"/><circle cx="302.154" cy="77.3098" r="1" transform="matrix(0 1 -1 0 379.4638 -224.8442)"/><circle cx="302.154" cy="103.197" r="1" transform="matrix(0 1 -1 0 405.351 -198.957)"/><circle cx="302.154" cy="129.085" r="1" transform="matrix(0 1 -1 0 431.239 -173.069)"/><circle cx="302.154" cy="154.972" r="1" transform="matrix(0 1 -1 0 457.126 -147.182)"/><circle cx="302.154" cy="180.859" r="1" transform="matrix(0 1 -1 0 483.013 -121.295)"/><circle cx="302.154" cy="206.747" r="1" transform="matrix(0 1 -1 0 508.901 -95.407)"/><circle cx="302.154" cy="232.634" r="1" transform="matrix(0 1 -1 0 534.788 -69.52)"/><circle cx="302.154" cy="258.521" r="1" transform="matrix(0 1 -1 0 560.675 -43.633)"/><circle cx="302.154" cy="284.408" r="1" transform="matrix(0 1 -1 0 586.562 -17.746)"/><circle cx="302.154" cy="310.296" r="1" transform="matrix(0 1 -1 0 612.45 8.142)"/><circle cx="302.154" cy="336.183" r="1" transform="matrix(0 1 -1 0 638.337 34.029)"/><circle cx="302.154" cy="362.071" r="1" transform="matrix(0 1 -1 0 664.225 59.917)"/><circle cx="302.154" cy="387.958" r="1" transform="matrix(0 1 -1 0 690.112 85.804)"/><circle cx="302.154" cy="413.845" r="1" transform="matrix(0 1 -1 0 715.999 111.691)"/><circle cx="302.154" cy="439.732" r="1" transform="matrix(0 1 -1 0 741.886 137.578)"/><circle cx="302.154" cy="465.62" r="1" transform="matrix(0 1 -1 0 767.774 163.466)"/><circle cx="302.154" cy="491.507" r="1" transform="matrix(0 1 -1 0 793.661 189.353)"/><circle cx="302.154" cy="517.395" r="1" transform="matrix(0 1 -1 0 819.549 215.241)"/><circle cx="302.154" cy="543.282" r="1" transform="matrix(0 1 -1 0 845.436 241.128)"/><circle cx="302.154" cy="569.169" r="1" transform="matrix(0 1 -1 0 871.323 267.015)"/><circle cx="302.154" cy="595.056" r="1" transform="matrix(0 1 -1 0 897.21 292.902)"/><circle cx="302.154" cy="620.944" r="1" transform="matrix(0 1 -1 0 923.098 318.79)"/><circle cx="302.154" cy="646.831" r="1" transform="matrix(0 1 -1 0 948.985 344.677)"/><circle cx="302.154" cy="672.719" r="1" transform="matrix(0 1 -1 0 974.873 370.565)"/><circle cx="302.154" cy="698.606" r="1" transform="matrix(0 1 -1 0 1000.76 396.452)"/><circle cx="302.154" cy="724.493" r="1" transform="matrix(0 1 -1 0 1026.647 422.339)"/><circle cx="302.154" cy="750.38" r="1" transform="matrix(0 1 -1 0 1052.534 448.226)"/><circle cx="302.154" cy="776.268" r="1" transform="matrix(0 1 -1 0 1078.422 474.114)"/><circle cx="302.154" cy="802.155" r="1" transform="matrix(0 1 -1 0 1104.309 500.001)"/><circle cx="302.154" cy="828.042" r="1" transform="matrix(0 1 -1 0 1130.196 525.888)"/><circle cx="302.154" cy="853.93" r="1" transform="matrix(0 1 -1 0 1156.084 551.776)"/><circle cx="302.154" cy="879.817" r="1" transform="matrix(0 1 -1 0 1181.971 577.663)"/><circle cx="302.154" cy="905.704" r="1" transform="matrix(0 1 -1 0 1207.858 603.55)"/><circle cx="302.154" cy="931.592" r="1" transform="matrix(0 1 -1 0 1233.746 629.438)"/><circle cx="302.154" cy="957.479" r="1" transform="matrix(0 1 -1 0 1259.633 655.325)"/><circle cx="302.154" cy="983.366" r="1" transform="matrix(0 1 -1 0 1285.52 681.212)"/><circle cx="302.154" cy="1009.25" r="1" transform="matrix(0 1 -1 0 1311.404 707.096)"/><circle cx="302.154" cy="1035.14" r="1" transform="matrix(0 1 -1 0 1337.294 732.986)"/><circle cx="302.154" cy="1061.03" r="1" transform="matrix(0 1 -1 0 1363.184 758.876)"/><circle cx="302.154" cy="1086.92" r="1" transform="matrix(0 1 -1 0 1389.074 784.766)"/><circle cx="302.154" cy="1112.8" r="1" transform="matrix(0 1 -1 0 1414.954 810.646)"/><circle cx="302.154" cy="1138.69" r="1" transform="matrix(0 1 -1 0 1440.844 836.536)"/><circle cx="302.154" cy="1164.58" r="1" transform="matrix(0 1 -1 0 1466.734 862.426)"/><circle cx="302.154" cy="1190.46" r="1" transform="matrix(0 1 -1 0 1492.614 888.306)"/><circle cx="302.154" cy="1216.35" r="1" transform="matrix(0 1 -1 0 1518.504 914.196)"/><circle cx="276.564" cy="-.352051" r="1" transform="matrix(0 1 -1 0 276.211949 -276.916051)"/><circle cx="276.564" cy="25.5352" r="1" transform="matrix(0 1 -1 0 302.0992 -251.0288)"/><circle cx="276.564" cy="51.4226" r="1" transform="matrix(0 1 -1 0 327.9866 -225.1414)"/><circle cx="276.564" cy="77.3098" r="1" transform="matrix(0 1 -1 0 353.8738 -199.2542)"/><circle cx="276.564" cy="103.197" r="1" transform="matrix(0 1 -1 0 379.761 -173.367)"/><circle cx="276.564" cy="129.085" r="1" transform="matrix(0 1 -1 0 405.649 -147.479)"/><circle cx="276.564" cy="154.972" r="1" transform="matrix(0 1 -1 0 431.536 -121.592)"/><circle cx="276.564" cy="180.859" r="1" transform="matrix(0 1 -1 0 457.423 -95.705)"/><circle cx="276.564" cy="206.747" r="1" transform="matrix(0 1 -1 0 483.311 -69.817)"/><circle cx="276.564" cy="232.634" r="1" transform="matrix(0 1 -1 0 509.198 -43.93)"/><circle cx="276.564" cy="258.521" r="1" transform="matrix(0 1 -1 0 535.085 -18.043)"/><circle cx="276.564" cy="284.408" r="1" transform="matrix(0 1 -1 0 560.972 7.844)"/><circle cx="276.564" cy="310.296" r="1" transform="matrix(0 1 -1 0 586.86 33.732)"/><circle cx="276.564" cy="336.183" r="1" transform="matrix(0 1 -1 0 612.747 59.619)"/><circle cx="276.564" cy="362.071" r="1" transform="matrix(0 1 -1 0 638.635 85.507)"/><circle cx="276.564" cy="387.958" r="1" transform="matrix(0 1 -1 0 664.522 111.394)"/><circle cx="276.564" cy="413.845" r="1" transform="matrix(0 1 -1 0 690.409 137.281)"/><circle cx="276.564" cy="439.732" r="1" transform="matrix(0 1 -1 0 716.296 163.168)"/><circle cx="276.564" cy="465.62" r="1" transform="matrix(0 1 -1 0 742.184 189.056)"/><circle cx="276.564" cy="491.507" r="1" transform="matrix(0 1 -1 0 768.071 214.943)"/><circle cx="276.564" cy="517.395" r="1" transform="matrix(0 1 -1 0 793.959 240.831)"/><circle cx="276.564" cy="543.282" r="1" transform="matrix(0 1 -1 0 819.846 266.718)"/><circle cx="276.564" cy="569.169" r="1" transform="matrix(0 1 -1 0 845.733 292.605)"/><circle cx="276.564" cy="595.056" r="1" transform="matrix(0 1 -1 0 871.62 318.492)"/><circle cx="276.564" cy="620.944" r="1" transform="matrix(0 1 -1 0 897.508 344.38)"/><circle cx="276.564" cy="646.831" r="1" transform="matrix(0 1 -1 0 923.395 370.267)"/><circle cx="276.564" cy="672.719" r="1" transform="matrix(0 1 -1 0 949.283 396.155)"/><circle cx="276.564" cy="698.606" r="1" transform="matrix(0 1 -1 0 975.17 422.042)"/><circle cx="276.564" cy="724.493" r="1" transform="matrix(0 1 -1 0 1001.057 447.929)"/><circle cx="276.564" cy="750.38" r="1" transform="matrix(0 1 -1 0 1026.944 473.816)"/><circle cx="276.564" cy="776.268" r="1" transform="matrix(0 1 -1 0 1052.832 499.704)"/><circle cx="276.564" cy="802.155" r="1" transform="matrix(0 1 -1 0 1078.719 525.591)"/><circle cx="276.564" cy="828.042" r="1" transform="matrix(0 1 -1 0 1104.606 551.478)"/><circle cx="276.564" cy="853.93" r="1" transform="matrix(0 1 -1 0 1130.494 577.366)"/><circle cx="276.564" cy="879.817" r="1" transform="matrix(0 1 -1 0 1156.381 603.253)"/><circle cx="276.564" cy="905.704" r="1" transform="matrix(0 1 -1 0 1182.268 629.14)"/><circle cx="276.564" cy="931.592" r="1" transform="matrix(0 1 -1 0 1208.156 655.028)"/><circle cx="276.564" cy="957.479" r="1" transform="matrix(0 1 -1 0 1234.043 680.915)"/><circle cx="276.564" cy="983.366" r="1" transform="matrix(0 1 -1 0 1259.93 706.802)"/><circle cx="276.564" cy="1009.25" r="1" transform="matrix(0 1 -1 0 1285.814 732.686)"/><circle cx="276.564" cy="1035.14" r="1" transform="matrix(0 1 -1 0 1311.704 758.576)"/><circle cx="276.564" cy="1061.03" r="1" transform="matrix(0 1 -1 0 1337.594 784.466)"/><circle cx="276.564" cy="1086.92" r="1" transform="matrix(0 1 -1 0 1363.484 810.356)"/><circle cx="276.564" cy="1112.8" r="1" transform="matrix(0 1 -1 0 1389.364 836.236)"/><circle cx="276.564" cy="1138.69" r="1" transform="matrix(0 1 -1 0 1415.254 862.126)"/><circle cx="276.564" cy="1164.58" r="1" transform="matrix(0 1 -1 0 1441.144 888.016)"/><circle cx="276.564" cy="1190.46" r="1" transform="matrix(0 1 -1 0 1467.024 913.896)"/><circle cx="276.564" cy="1216.35" r="1" transform="matrix(0 1 -1 0 1492.914 939.786)"/><circle cx="250.974" cy="-.352051" r="1" transform="matrix(0 1 -1 0 250.621949 -251.326051)"/><circle cx="250.974" cy="25.5352" r="1" transform="matrix(0 1 -1 0 276.5092 -225.4388)"/><circle cx="250.974" cy="51.4226" r="1" transform="matrix(0 1 -1 0 302.3966 -199.5514)"/><circle cx="250.974" cy="77.3098" r="1" transform="matrix(0 1 -1 0 328.2838 -173.6642)"/><circle cx="250.974" cy="103.197" r="1" transform="matrix(0 1 -1 0 354.171 -147.777)"/><circle cx="250.974" cy="129.085" r="1" transform="matrix(0 1 -1 0 380.059 -121.889)"/><circle cx="250.974" cy="154.972" r="1" transform="matrix(0 1 -1 0 405.946 -96.002)"/><circle cx="250.974" cy="180.859" r="1" transform="matrix(0 1 -1 0 431.833 -70.115)"/><circle cx="250.974" cy="206.747" r="1" transform="matrix(0 1 -1 0 457.721 -44.227)"/><circle cx="250.974" cy="232.634" r="1" transform="matrix(0 1 -1 0 483.608 -18.34)"/><circle cx="250.974" cy="258.521" r="1" transform="matrix(0 1 -1 0 509.495 7.547)"/><circle cx="250.974" cy="284.408" r="1" transform="matrix(0 1 -1 0 535.382 33.434)"/><circle cx="250.974" cy="310.296" r="1" transform="matrix(0 1 -1 0 561.27 59.322)"/><circle cx="250.974" cy="336.183" r="1" transform="matrix(0 1 -1 0 587.157 85.209)"/><circle cx="250.974" cy="362.071" r="1" transform="matrix(0 1 -1 0 613.045 111.097)"/><circle cx="250.974" cy="387.958" r="1" transform="matrix(0 1 -1 0 638.932 136.984)"/><circle cx="250.974" cy="413.845" r="1" transform="matrix(0 1 -1 0 664.819 162.871)"/><circle cx="250.974" cy="439.732" r="1" transform="matrix(0 1 -1 0 690.706 188.758)"/><circle cx="250.974" cy="465.62" r="1" transform="matrix(0 1 -1 0 716.594 214.646)"/><circle cx="250.974" cy="491.507" r="1" transform="matrix(0 1 -1 0 742.481 240.533)"/><circle cx="250.974" cy="517.395" r="1" transform="matrix(0 1 -1 0 768.369 266.421)"/><circle cx="250.974" cy="543.282" r="1" transform="matrix(0 1 -1 0 794.256 292.308)"/><circle cx="250.974" cy="569.169" r="1" transform="matrix(0 1 -1 0 820.143 318.195)"/><circle cx="250.974" cy="595.056" r="1" transform="matrix(0 1 -1 0 846.03 344.082)"/><circle cx="250.974" cy="620.944" r="1" transform="matrix(0 1 -1 0 871.918 369.97)"/><circle cx="250.974" cy="646.831" r="1" transform="matrix(0 1 -1 0 897.805 395.857)"/><circle cx="250.974" cy="672.719" r="1" transform="matrix(0 1 -1 0 923.693 421.745)"/><circle cx="250.974" cy="698.606" r="1" transform="matrix(0 1 -1 0 949.58 447.632)"/><circle cx="250.974" cy="724.493" r="1" transform="matrix(0 1 -1 0 975.467 473.519)"/><circle cx="250.974" cy="750.38" r="1" transform="matrix(0 1 -1 0 1001.354 499.406)"/><circle cx="250.974" cy="776.268" r="1" transform="matrix(0 1 -1 0 1027.242 525.294)"/><circle cx="250.974" cy="802.155" r="1" transform="matrix(0 1 -1 0 1053.129 551.181)"/><circle cx="250.974" cy="828.042" r="1" transform="matrix(0 1 -1 0 1079.016 577.068)"/><circle cx="250.974" cy="853.93" r="1" transform="matrix(0 1 -1 0 1104.904 602.956)"/><circle cx="250.974" cy="879.817" r="1" transform="matrix(0 1 -1 0 1130.791 628.843)"/><circle cx="250.974" cy="905.704" r="1" transform="matrix(0 1 -1 0 1156.678 654.73)"/><circle cx="250.974" cy="931.592" r="1" transform="matrix(0 1 -1 0 1182.566 680.618)"/><circle cx="250.974" cy="957.479" r="1" transform="matrix(0 1 -1 0 1208.453 706.505)"/><circle cx="250.974" cy="983.366" r="1" transform="matrix(0 1 -1 0 1234.34 732.392)"/><circle cx="250.974" cy="1009.25" r="1" transform="matrix(0 1 -1 0 1260.224 758.276)"/><circle cx="250.974" cy="1035.14" r="1" transform="matrix(0 1 -1 0 1286.114 784.166)"/><circle cx="250.974" cy="1061.03" r="1" transform="matrix(0 1 -1 0 1312.004 810.056)"/><circle cx="250.974" cy="1086.92" r="1" transform="matrix(0 1 -1 0 1337.894 835.946)"/><circle cx="250.974" cy="1112.8" r="1" transform="matrix(0 1 -1 0 1363.774 861.826)"/><circle cx="250.974" cy="1138.69" r="1" transform="matrix(0 1 -1 0 1389.664 887.716)"/><circle cx="250.974" cy="1164.58" r="1" transform="matrix(0 1 -1 0 1415.554 913.606)"/><circle cx="250.974" cy="1190.46" r="1" transform="matrix(0 1 -1 0 1441.434 939.486)"/><circle cx="250.974" cy="1216.35" r="1" transform="matrix(0 1 -1 0 1467.324 965.376)"/><circle cx="225.385" cy="-.352051" r="1" transform="matrix(0 1 -1 0 225.032949 -225.737051)"/><circle cx="225.385" cy="25.5352" r="1" transform="matrix(0 1 -1 0 250.9202 -199.8498)"/><circle cx="225.385" cy="51.4226" r="1" transform="matrix(0 1 -1 0 276.8076 -173.9624)"/><circle cx="225.385" cy="77.3098" r="1" transform="matrix(0 1 -1 0 302.6948 -148.0752)"/><circle cx="225.385" cy="103.197" r="1" transform="matrix(0 1 -1 0 328.582 -122.188)"/><circle cx="225.385" cy="129.085" r="1" transform="matrix(0 1 -1 0 354.47 -96.3)"/><circle cx="225.385" cy="154.972" r="1" transform="matrix(0 1 -1 0 380.357 -70.413)"/><circle cx="225.385" cy="180.859" r="1" transform="matrix(0 1 -1 0 406.244 -44.526)"/><circle cx="225.385" cy="206.747" r="1" transform="matrix(0 1 -1 0 432.132 -18.638)"/><circle cx="225.385" cy="232.634" r="1" transform="matrix(0 1 -1 0 458.019 7.249)"/><circle cx="225.385" cy="258.521" r="1" transform="matrix(0 1 -1 0 483.906 33.136)"/><circle cx="225.385" cy="284.408" r="1" transform="matrix(0 1 -1 0 509.793 59.023)"/><circle cx="225.385" cy="310.296" r="1" transform="matrix(0 1 -1 0 535.681 84.911)"/><circle cx="225.385" cy="336.183" r="1" transform="matrix(0 1 -1 0 561.568 110.798)"/><circle cx="225.385" cy="362.071" r="1" transform="matrix(0 1 -1 0 587.456 136.686)"/><circle cx="225.385" cy="387.958" r="1" transform="matrix(0 1 -1 0 613.343 162.573)"/><circle cx="225.385" cy="413.845" r="1" transform="matrix(0 1 -1 0 639.23 188.46)"/><circle cx="225.385" cy="439.732" r="1" transform="matrix(0 1 -1 0 665.117 214.347)"/><circle cx="225.385" cy="465.62" r="1" transform="matrix(0 1 -1 0 691.005 240.235)"/><circle cx="225.385" cy="491.507" r="1" transform="matrix(0 1 -1 0 716.892 266.122)"/><circle cx="225.385" cy="517.395" r="1" transform="matrix(0 1 -1 0 742.78 292.01)"/><circle cx="225.385" cy="543.282" r="1" transform="matrix(0 1 -1 0 768.667 317.897)"/><circle cx="225.385" cy="569.169" r="1" transform="matrix(0 1 -1 0 794.554 343.784)"/><circle cx="225.385" cy="595.056" r="1" transform="matrix(0 1 -1 0 820.441 369.671)"/><circle cx="225.385" cy="620.944" r="1" transform="matrix(0 1 -1 0 846.329 395.559)"/><circle cx="225.385" cy="646.831" r="1" transform="matrix(0 1 -1 0 872.216 421.446)"/><circle cx="225.385" cy="672.719" r="1" transform="matrix(0 1 -1 0 898.104 447.334)"/><circle cx="225.385" cy="698.606" r="1" transform="matrix(0 1 -1 0 923.991 473.221)"/><circle cx="225.385" cy="724.493" r="1" transform="matrix(0 1 -1 0 949.878 499.108)"/><circle cx="225.385" cy="750.38" r="1" transform="matrix(0 1 -1 0 975.765 524.995)"/><circle cx="225.385" cy="776.268" r="1" transform="matrix(0 1 -1 0 1001.653 550.883)"/><circle cx="225.385" cy="802.155" r="1" transform="matrix(0 1 -1 0 1027.54 576.77)"/><circle cx="225.385" cy="828.042" r="1" transform="matrix(0 1 -1 0 1053.427 602.657)"/><circle cx="225.385" cy="853.93" r="1" transform="matrix(0 1 -1 0 1079.315 628.545)"/><circle cx="225.385" cy="879.817" r="1" transform="matrix(0 1 -1 0 1105.202 654.432)"/><circle cx="225.385" cy="905.704" r="1" transform="matrix(0 1 -1 0 1131.089 680.319)"/><circle cx="225.385" cy="931.592" r="1" transform="matrix(0 1 -1 0 1156.977 706.207)"/><circle cx="225.385" cy="957.479" r="1" transform="matrix(0 1 -1 0 1182.864 732.094)"/><circle cx="225.385" cy="983.366" r="1" transform="matrix(0 1 -1 0 1208.751 757.981)"/><circle cx="225.385" cy="1009.25" r="1" transform="matrix(0 1 -1 0 1234.635 783.865)"/><circle cx="225.385" cy="1035.14" r="1" transform="matrix(0 1 -1 0 1260.525 809.755)"/><circle cx="225.385" cy="1061.03" r="1" transform="matrix(0 1 -1 0 1286.415 835.645)"/><circle cx="225.385" cy="1086.92" r="1" transform="matrix(0 1 -1 0 1312.305 861.535)"/><circle cx="225.385" cy="1112.8" r="1" transform="matrix(0 1 -1 0 1338.185 887.415)"/><circle cx="225.385" cy="1138.69" r="1" transform="matrix(0 1 -1 0 1364.075 913.305)"/><circle cx="225.385" cy="1164.58" r="1" transform="matrix(0 1 -1 0 1389.965 939.195)"/><circle cx="225.385" cy="1190.46" r="1" transform="matrix(0 1 -1 0 1415.845 965.075)"/><circle cx="225.385" cy="1216.35" r="1" transform="matrix(0 1 -1 0 1441.735 990.965)"/><circle cx="199.795" cy="-.352051" r="1" transform="matrix(0 1 -1 0 199.442949 -200.147051)"/><circle cx="199.795" cy="25.5352" r="1" transform="matrix(0 1 -1 0 225.3302 -174.2598)"/><circle cx="199.795" cy="51.4226" r="1" transform="matrix(0 1 -1 0 251.2176 -148.3724)"/><circle cx="199.795" cy="77.3098" r="1" transform="matrix(0 1 -1 0 277.1048 -122.4852)"/><circle cx="199.795" cy="103.197" r="1" transform="matrix(0 1 -1 0 302.992 -96.598)"/><circle cx="199.795" cy="129.085" r="1" transform="matrix(0 1 -1 0 328.88 -70.71)"/><circle cx="199.795" cy="154.972" r="1" transform="matrix(0 1 -1 0 354.767 -44.823)"/><circle cx="199.795" cy="180.859" r="1" transform="matrix(0 1 -1 0 380.654 -18.936)"/><circle cx="199.795" cy="206.747" r="1" transform="matrix(0 1 -1 0 406.542 6.952)"/><circle cx="199.795" cy="232.634" r="1" transform="matrix(0 1 -1 0 432.429 32.839)"/><circle cx="199.795" cy="258.521" r="1" transform="matrix(0 1 -1 0 458.316 58.726)"/><circle cx="199.795" cy="284.408" r="1" transform="matrix(0 1 -1 0 484.203 84.613)"/><circle cx="199.795" cy="310.296" r="1" transform="matrix(0 1 -1 0 510.091 110.501)"/><circle cx="199.795" cy="336.183" r="1" transform="matrix(0 1 -1 0 535.978 136.388)"/><circle cx="199.795" cy="362.071" r="1" transform="matrix(0 1 -1 0 561.866 162.276)"/><circle cx="199.795" cy="387.958" r="1" transform="matrix(0 1 -1 0 587.753 188.163)"/><circle cx="199.795" cy="413.845" r="1" transform="matrix(0 1 -1 0 613.64 214.05)"/><circle cx="199.795" cy="439.732" r="1" transform="matrix(0 1 -1 0 639.527 239.937)"/><circle cx="199.795" cy="465.62" r="1" transform="matrix(0 1 -1 0 665.415 265.825)"/><circle cx="199.795" cy="491.507" r="1" transform="matrix(0 1 -1 0 691.302 291.712)"/><circle cx="199.795" cy="517.395" r="1" transform="matrix(0 1 -1 0 717.19 317.6)"/><circle cx="199.795" cy="543.282" r="1" transform="matrix(0 1 -1 0 743.077 343.487)"/><circle cx="199.795" cy="569.169" r="1" transform="matrix(0 1 -1 0 768.964 369.374)"/><circle cx="199.795" cy="595.056" r="1" transform="matrix(0 1 -1 0 794.851 395.261)"/><circle cx="199.795" cy="620.944" r="1" transform="matrix(0 1 -1 0 820.739 421.149)"/><circle cx="199.795" cy="646.831" r="1" transform="matrix(0 1 -1 0 846.626 447.036)"/><circle cx="199.795" cy="672.719" r="1" transform="matrix(0 1 -1 0 872.514 472.924)"/><circle cx="199.795" cy="698.606" r="1" transform="matrix(0 1 -1 0 898.401 498.811)"/><circle cx="199.795" cy="724.493" r="1" transform="matrix(0 1 -1 0 924.288 524.698)"/><circle cx="199.795" cy="750.38" r="1" transform="matrix(0 1 -1 0 950.175 550.585)"/><circle cx="199.795" cy="776.268" r="1" transform="matrix(0 1 -1 0 976.063 576.473)"/><circle cx="199.795" cy="802.155" r="1" transform="matrix(0 1 -1 0 1001.95 602.36)"/><circle cx="199.795" cy="828.042" r="1" transform="matrix(0 1 -1 0 1027.837 628.247)"/><circle cx="199.795" cy="853.93" r="1" transform="matrix(0 1 -1 0 1053.725 654.135)"/><circle cx="199.795" cy="879.817" r="1" transform="matrix(0 1 -1 0 1079.612 680.022)"/><circle cx="199.795" cy="905.704" r="1" transform="matrix(0 1 -1 0 1105.499 705.909)"/><circle cx="199.795" cy="931.592" r="1" transform="matrix(0 1 -1 0 1131.387 731.797)"/><circle cx="199.795" cy="957.479" r="1" transform="matrix(0 1 -1 0 1157.274 757.684)"/><circle cx="199.795" cy="983.366" r="1" transform="matrix(0 1 -1 0 1183.161 783.571)"/><circle cx="199.795" cy="1009.25" r="1" transform="matrix(0 1 -1 0 1209.045 809.455)"/><circle cx="199.795" cy="1035.14" r="1" transform="matrix(0 1 -1 0 1234.935 835.345)"/><circle cx="199.795" cy="1061.03" r="1" transform="matrix(0 1 -1 0 1260.825 861.235)"/><circle cx="199.795" cy="1086.92" r="1" transform="matrix(0 1 -1 0 1286.715 887.125)"/><circle cx="199.795" cy="1112.8" r="1" transform="matrix(0 1 -1 0 1312.595 913.005)"/><circle cx="199.795" cy="1138.69" r="1" transform="matrix(0 1 -1 0 1338.485 938.895)"/><circle cx="199.795" cy="1164.58" r="1" transform="matrix(0 1 -1 0 1364.375 964.785)"/><circle cx="199.795" cy="1190.46" r="1" transform="matrix(0 1 -1 0 1390.255 990.665)"/><circle cx="199.795" cy="1216.35" r="1" transform="matrix(0 1 -1 0 1416.145 1016.555)"/><circle cx="174.205" cy="-.352051" r="1" transform="matrix(0 1 -1 0 173.852949 -174.557051)"/><circle cx="174.205" cy="25.5352" r="1" transform="matrix(0 1 -1 0 199.7402 -148.6698)"/><circle cx="174.205" cy="51.4226" r="1" transform="matrix(0 1 -1 0 225.6276 -122.7824)"/><circle cx="174.205" cy="77.3098" r="1" transform="matrix(0 1 -1 0 251.5148 -96.8952)"/><circle cx="174.205" cy="103.197" r="1" transform="matrix(0 1 -1 0 277.402 -71.008)"/><circle cx="174.205" cy="129.085" r="1" transform="matrix(0 1 -1 0 303.29 -45.12)"/><circle cx="174.205" cy="154.972" r="1" transform="matrix(0 1 -1 0 329.177 -19.233)"/><circle cx="174.205" cy="180.859" r="1" transform="matrix(0 1 -1 0 355.064 6.654)"/><circle cx="174.205" cy="206.747" r="1" transform="matrix(0 1 -1 0 380.952 32.542)"/><circle cx="174.205" cy="232.634" r="1" transform="matrix(0 1 -1 0 406.839 58.429)"/><circle cx="174.205" cy="258.521" r="1" transform="matrix(0 1 -1 0 432.726 84.316)"/><circle cx="174.205" cy="284.408" r="1" transform="matrix(0 1 -1 0 458.613 110.203)"/><circle cx="174.205" cy="310.296" r="1" transform="matrix(0 1 -1 0 484.501 136.091)"/><circle cx="174.205" cy="336.183" r="1" transform="matrix(0 1 -1 0 510.388 161.978)"/><circle cx="174.205" cy="362.071" r="1" transform="matrix(0 1 -1 0 536.276 187.866)"/><circle cx="174.205" cy="387.958" r="1" transform="matrix(0 1 -1 0 562.163 213.753)"/><circle cx="174.205" cy="413.845" r="1" transform="matrix(0 1 -1 0 588.05 239.64)"/><circle cx="174.205" cy="439.732" r="1" transform="matrix(0 1 -1 0 613.937 265.527)"/><circle cx="174.205" cy="465.62" r="1" transform="matrix(0 1 -1 0 639.825 291.415)"/><circle cx="174.205" cy="491.507" r="1" transform="matrix(0 1 -1 0 665.712 317.302)"/><circle cx="174.205" cy="517.395" r="1" transform="matrix(0 1 -1 0 691.6 343.19)"/><circle cx="174.205" cy="543.282" r="1" transform="matrix(0 1 -1 0 717.487 369.077)"/><circle cx="174.205" cy="569.169" r="1" transform="matrix(0 1 -1 0 743.374 394.964)"/><circle cx="174.205" cy="595.056" r="1" transform="matrix(0 1 -1 0 769.261 420.851)"/><circle cx="174.205" cy="620.944" r="1" transform="matrix(0 1 -1 0 795.149 446.739)"/><circle cx="174.205" cy="646.831" r="1" transform="matrix(0 1 -1 0 821.036 472.626)"/><circle cx="174.205" cy="672.719" r="1" transform="matrix(0 1 -1 0 846.924 498.514)"/><circle cx="174.205" cy="698.606" r="1" transform="matrix(0 1 -1 0 872.811 524.401)"/><circle cx="174.205" cy="724.493" r="1" transform="matrix(0 1 -1 0 898.698 550.288)"/><circle cx="174.205" cy="750.38" r="1" transform="matrix(0 1 -1 0 924.585 576.175)"/><circle cx="174.205" cy="776.268" r="1" transform="matrix(0 1 -1 0 950.473 602.063)"/><circle cx="174.205" cy="802.155" r="1" transform="matrix(0 1 -1 0 976.36 627.95)"/><circle cx="174.205" cy="828.042" r="1" transform="matrix(0 1 -1 0 1002.247 653.837)"/><circle cx="174.205" cy="853.93" r="1" transform="matrix(0 1 -1 0 1028.135 679.725)"/><circle cx="174.205" cy="879.817" r="1" transform="matrix(0 1 -1 0 1054.022 705.612)"/><circle cx="174.205" cy="905.704" r="1" transform="matrix(0 1 -1 0 1079.909 731.499)"/><circle cx="174.205" cy="931.592" r="1" transform="matrix(0 1 -1 0 1105.797 757.387)"/><circle cx="174.205" cy="957.479" r="1" transform="matrix(0 1 -1 0 1131.684 783.274)"/><circle cx="174.205" cy="983.366" r="1" transform="matrix(0 1 -1 0 1157.571 809.161)"/><circle cx="174.205" cy="1009.25" r="1" transform="matrix(0 1 -1 0 1183.455 835.045)"/><circle cx="174.205" cy="1035.14" r="1" transform="matrix(0 1 -1 0 1209.345 860.935)"/><circle cx="174.205" cy="1061.03" r="1" transform="matrix(0 1 -1 0 1235.235 886.825)"/><circle cx="174.205" cy="1086.92" r="1" transform="matrix(0 1 -1 0 1261.125 912.715)"/><circle cx="174.205" cy="1112.8" r="1" transform="matrix(0 1 -1 0 1287.005 938.595)"/><circle cx="174.205" cy="1138.69" r="1" transform="matrix(0 1 -1 0 1312.895 964.485)"/><circle cx="174.205" cy="1164.58" r="1" transform="matrix(0 1 -1 0 1338.785 990.375)"/><circle cx="174.205" cy="1190.46" r="1" transform="matrix(0 1 -1 0 1364.665 1016.255)"/><circle cx="174.205" cy="1216.35" r="1" transform="matrix(0 1 -1 0 1390.555 1042.145)"/><circle cx="148.615" cy="-.352051" r="1" transform="matrix(0 1 -1 0 148.262949 -148.967051)"/><circle cx="148.615" cy="25.5352" r="1" transform="matrix(0 1 -1 0 174.1502 -123.0798)"/><circle cx="148.615" cy="51.4226" r="1" transform="matrix(0 1 -1 0 200.0376 -97.1924)"/><circle cx="148.615" cy="77.3098" r="1" transform="matrix(0 1 -1 0 225.9248 -71.3052)"/><circle cx="148.615" cy="103.197" r="1" transform="matrix(0 1 -1 0 251.812 -45.418)"/><circle cx="148.615" cy="129.085" r="1" transform="matrix(0 1 -1 0 277.7 -19.53)"/><circle cx="148.615" cy="154.972" r="1" transform="matrix(0 1 -1 0 303.587 6.357)"/><circle cx="148.615" cy="180.859" r="1" transform="matrix(0 1 -1 0 329.474 32.244)"/><circle cx="148.615" cy="206.747" r="1" transform="matrix(0 1 -1 0 355.362 58.132)"/><circle cx="148.615" cy="232.634" r="1" transform="matrix(0 1 -1 0 381.249 84.019)"/><circle cx="148.615" cy="258.521" r="1" transform="matrix(0 1 -1 0 407.136 109.906)"/><circle cx="148.615" cy="284.408" r="1" transform="matrix(0 1 -1 0 433.023 135.793)"/><circle cx="148.615" cy="310.296" r="1" transform="matrix(0 1 -1 0 458.911 161.681)"/><circle cx="148.615" cy="336.183" r="1" transform="matrix(0 1 -1 0 484.798 187.568)"/><circle cx="148.615" cy="362.071" r="1" transform="matrix(0 1 -1 0 510.686 213.456)"/><circle cx="148.615" cy="387.958" r="1" transform="matrix(0 1 -1 0 536.573 239.343)"/><circle cx="148.615" cy="413.845" r="1" transform="matrix(0 1 -1 0 562.46 265.23)"/><circle cx="148.615" cy="439.732" r="1" transform="matrix(0 1 -1 0 588.347 291.117)"/><circle cx="148.615" cy="465.62" r="1" transform="matrix(0 1 -1 0 614.235 317.005)"/><circle cx="148.615" cy="491.507" r="1" transform="matrix(0 1 -1 0 640.122 342.892)"/><circle cx="148.615" cy="517.395" r="1" transform="matrix(0 1 -1 0 666.01 368.78)"/><circle cx="148.615" cy="543.282" r="1" transform="matrix(0 1 -1 0 691.897 394.667)"/><circle cx="148.615" cy="569.169" r="1" transform="matrix(0 1 -1 0 717.784 420.554)"/><circle cx="148.615" cy="595.056" r="1" transform="matrix(0 1 -1 0 743.671 446.441)"/><circle cx="148.615" cy="620.944" r="1" transform="matrix(0 1 -1 0 769.559 472.329)"/><circle cx="148.615" cy="646.831" r="1" transform="matrix(0 1 -1 0 795.446 498.216)"/><circle cx="148.615" cy="672.719" r="1" transform="matrix(0 1 -1 0 821.334 524.104)"/><circle cx="148.615" cy="698.606" r="1" transform="matrix(0 1 -1 0 847.221 549.991)"/><circle cx="148.615" cy="724.493" r="1" transform="matrix(0 1 -1 0 873.108 575.878)"/><circle cx="148.615" cy="750.38" r="1" transform="matrix(0 1 -1 0 898.995 601.765)"/><circle cx="148.615" cy="776.268" r="1" transform="matrix(0 1 -1 0 924.883 627.653)"/><circle cx="148.615" cy="802.155" r="1" transform="matrix(0 1 -1 0 950.77 653.54)"/><circle cx="148.615" cy="828.042" r="1" transform="matrix(0 1 -1 0 976.657 679.427)"/><circle cx="148.615" cy="853.93" r="1" transform="matrix(0 1 -1 0 1002.545 705.315)"/><circle cx="148.615" cy="879.817" r="1" transform="matrix(0 1 -1 0 1028.432 731.202)"/><circle cx="148.615" cy="905.704" r="1" transform="matrix(0 1 -1 0 1054.319 757.089)"/><circle cx="148.615" cy="931.592" r="1" transform="matrix(0 1 -1 0 1080.207 782.977)"/><circle cx="148.615" cy="957.479" r="1" transform="matrix(0 1 -1 0 1106.094 808.864)"/><circle cx="148.615" cy="983.366" r="1" transform="matrix(0 1 -1 0 1131.981 834.751)"/><circle cx="148.615" cy="1009.25" r="1" transform="matrix(0 1 -1 0 1157.865 860.635)"/><circle cx="148.615" cy="1035.14" r="1" transform="matrix(0 1 -1 0 1183.755 886.525)"/><circle cx="148.615" cy="1061.03" r="1" transform="matrix(0 1 -1 0 1209.645 912.415)"/><circle cx="148.615" cy="1086.92" r="1" transform="matrix(0 1 -1 0 1235.535 938.305)"/><circle cx="148.615" cy="1112.8" r="1" transform="matrix(0 1 -1 0 1261.415 964.185)"/><circle cx="148.615" cy="1138.69" r="1" transform="matrix(0 1 -1 0 1287.305 990.075)"/><circle cx="148.615" cy="1164.58" r="1" transform="matrix(0 1 -1 0 1313.195 1015.965)"/><circle cx="148.615" cy="1190.46" r="1" transform="matrix(0 1 -1 0 1339.075 1041.845)"/><circle cx="148.615" cy="1216.35" r="1" transform="matrix(0 1 -1 0 1364.965 1067.735)"/><circle cx="123.026" cy="-.352051" r="1" transform="matrix(0 1 -1 0 122.673949 -123.378051)"/><circle cx="123.026" cy="25.5352" r="1" transform="matrix(0 1 -1 0 148.5612 -97.4908)"/><circle cx="123.026" cy="51.4226" r="1" transform="matrix(0 1 -1 0 174.4486 -71.6034)"/><circle cx="123.026" cy="77.3098" r="1" transform="matrix(0 1 -1 0 200.3358 -45.7162)"/><circle cx="123.026" cy="103.197" r="1" transform="matrix(0 1 -1 0 226.223 -19.829)"/><circle cx="123.026" cy="129.085" r="1" transform="matrix(0 1 -1 0 252.111 6.059)"/><circle cx="123.026" cy="154.972" r="1" transform="matrix(0 1 -1 0 277.998 31.946)"/><circle cx="123.026" cy="180.859" r="1" transform="matrix(0 1 -1 0 303.885 57.833)"/><circle cx="123.026" cy="206.747" r="1" transform="matrix(0 1 -1 0 329.773 83.721)"/><circle cx="123.026" cy="232.634" r="1" transform="matrix(0 1 -1 0 355.66 109.608)"/><circle cx="123.026" cy="258.521" r="1" transform="matrix(0 1 -1 0 381.547 135.495)"/><circle cx="123.026" cy="284.408" r="1" transform="matrix(0 1 -1 0 407.434 161.382)"/><circle cx="123.026" cy="310.296" r="1" transform="matrix(0 1 -1 0 433.322 187.27)"/><circle cx="123.026" cy="336.183" r="1" transform="matrix(0 1 -1 0 459.209 213.157)"/><circle cx="123.026" cy="362.071" r="1" transform="matrix(0 1 -1 0 485.097 239.045)"/><circle cx="123.026" cy="387.958" r="1" transform="matrix(0 1 -1 0 510.984 264.932)"/><circle cx="123.026" cy="413.845" r="1" transform="matrix(0 1 -1 0 536.871 290.819)"/><circle cx="123.026" cy="439.732" r="1" transform="matrix(0 1 -1 0 562.758 316.706)"/><circle cx="123.026" cy="465.62" r="1" transform="matrix(0 1 -1 0 588.646 342.594)"/><circle cx="123.026" cy="491.507" r="1" transform="matrix(0 1 -1 0 614.533 368.481)"/><circle cx="123.026" cy="517.395" r="1" transform="matrix(0 1 -1 0 640.421 394.369)"/><circle cx="123.026" cy="543.282" r="1" transform="matrix(0 1 -1 0 666.308 420.256)"/><circle cx="123.026" cy="569.169" r="1" transform="matrix(0 1 -1 0 692.195 446.143)"/><circle cx="123.026" cy="595.056" r="1" transform="matrix(0 1 -1 0 718.082 472.03)"/><circle cx="123.026" cy="620.944" r="1" transform="matrix(0 1 -1 0 743.97 497.918)"/><circle cx="123.026" cy="646.831" r="1" transform="matrix(0 1 -1 0 769.857 523.805)"/><circle cx="123.026" cy="672.719" r="1" transform="matrix(0 1 -1 0 795.745 549.693)"/><circle cx="123.026" cy="698.606" r="1" transform="matrix(0 1 -1 0 821.632 575.58)"/><circle cx="123.026" cy="724.493" r="1" transform="matrix(0 1 -1 0 847.519 601.467)"/><circle cx="123.026" cy="750.38" r="1" transform="matrix(0 1 -1 0 873.406 627.354)"/><circle cx="123.026" cy="776.268" r="1" transform="matrix(0 1 -1 0 899.294 653.242)"/><circle cx="123.026" cy="802.155" r="1" transform="matrix(0 1 -1 0 925.181 679.129)"/><circle cx="123.026" cy="828.042" r="1" transform="matrix(0 1 -1 0 951.068 705.016)"/><circle cx="123.026" cy="853.93" r="1" transform="matrix(0 1 -1 0 976.956 730.904)"/><circle cx="123.026" cy="879.817" r="1" transform="matrix(0 1 -1 0 1002.843 756.791)"/><circle cx="123.026" cy="905.704" r="1" transform="matrix(0 1 -1 0 1028.73 782.678)"/><circle cx="123.026" cy="931.592" r="1" transform="matrix(0 1 -1 0 1054.618 808.566)"/><circle cx="123.026" cy="957.479" r="1" transform="matrix(0 1 -1 0 1080.505 834.453)"/><circle cx="123.026" cy="983.366" r="1" transform="matrix(0 1 -1 0 1106.392 860.34)"/><circle cx="123.026" cy="1009.25" r="1" transform="matrix(0 1 -1 0 1132.276 886.224)"/><circle cx="123.026" cy="1035.14" r="1" transform="matrix(0 1 -1 0 1158.166 912.114)"/><circle cx="123.026" cy="1061.03" r="1" transform="matrix(0 1 -1 0 1184.056 938.004)"/><circle cx="123.026" cy="1086.92" r="1" transform="matrix(0 1 -1 0 1209.946 963.894)"/><circle cx="123.026" cy="1112.8" r="1" transform="matrix(0 1 -1 0 1235.826 989.774)"/><circle cx="123.026" cy="1138.69" r="1" transform="matrix(0 1 -1 0 1261.716 1015.664)"/><circle cx="123.026" cy="1164.58" r="1" transform="matrix(0 1 -1 0 1287.606 1041.554)"/><circle cx="123.026" cy="1190.46" r="1" transform="matrix(0 1 -1 0 1313.486 1067.434)"/><circle cx="123.026" cy="1216.35" r="1" transform="matrix(0 1 -1 0 1339.376 1093.324)"/><circle cx="97.4359" cy="-.352051" r="1" transform="matrix(0 1 -1 0 97.083849 -97.787951)"/><circle cx="97.4359" cy="25.5352" r="1" transform="matrix(0 1 -1 0 122.9711 -71.9007)"/><circle cx="97.4359" cy="51.4226" r="1" transform="matrix(0 1 -1 0 148.8585 -46.0133)"/><circle cx="97.4359" cy="77.3098" r="1" transform="matrix(0 1 -1 0 174.7457 -20.1261)"/><circle cx="97.4359" cy="103.197" r="1" transform="matrix(0 1 -1 0 200.6329 5.7611)"/><circle cx="97.4359" cy="129.085" r="1" transform="matrix(0 1 -1 0 226.5209 31.6491)"/><circle cx="97.4359" cy="154.972" r="1" transform="matrix(0 1 -1 0 252.4079 57.5361)"/><circle cx="97.4359" cy="180.859" r="1" transform="matrix(0 1 -1 0 278.2949 83.4231)"/><circle cx="97.4359" cy="206.747" r="1" transform="matrix(0 1 -1 0 304.1829 109.3111)"/><circle cx="97.4359" cy="232.634" r="1" transform="matrix(0 1 -1 0 330.0699 135.1981)"/><circle cx="97.4359" cy="258.521" r="1" transform="matrix(0 1 -1 0 355.9569 161.0851)"/><circle cx="97.4359" cy="284.408" r="1" transform="matrix(0 1 -1 0 381.8439 186.9721)"/><circle cx="97.4359" cy="310.296" r="1" transform="matrix(0 1 -1 0 407.7319 212.8601)"/><circle cx="97.4359" cy="336.183" r="1" transform="matrix(0 1 -1 0 433.6189 238.7471)"/><circle cx="97.4359" cy="362.071" r="1" transform="matrix(0 1 -1 0 459.5069 264.6351)"/><circle cx="97.4359" cy="387.958" r="1" transform="matrix(0 1 -1 0 485.3939 290.5221)"/><circle cx="97.4359" cy="413.845" r="1" transform="matrix(0 1 -1 0 511.2809 316.4091)"/><circle cx="97.4359" cy="439.732" r="1" transform="matrix(0 1 -1 0 537.1679 342.2961)"/><circle cx="97.4359" cy="465.62" r="1" transform="matrix(0 1 -1 0 563.0559 368.1841)"/><circle cx="97.4359" cy="491.507" r="1" transform="matrix(0 1 -1 0 588.9429 394.0711)"/><circle cx="97.4359" cy="517.395" r="1" transform="matrix(0 1 -1 0 614.8309 419.9591)"/><circle cx="97.4359" cy="543.282" r="1" transform="matrix(0 1 -1 0 640.7179 445.8461)"/><circle cx="97.4359" cy="569.169" r="1" transform="matrix(0 1 -1 0 666.6049 471.7331)"/><circle cx="97.4359" cy="595.056" r="1" transform="matrix(0 1 -1 0 692.4919 497.6201)"/><circle cx="97.4359" cy="620.944" r="1" transform="matrix(0 1 -1 0 718.3799 523.5081)"/><circle cx="97.4359" cy="646.831" r="1" transform="matrix(0 1 -1 0 744.2669 549.3951)"/><circle cx="97.4359" cy="672.719" r="1" transform="matrix(0 1 -1 0 770.1549 575.2831)"/><circle cx="97.4359" cy="698.606" r="1" transform="matrix(0 1 -1 0 796.0419 601.1701)"/><circle cx="97.4359" cy="724.493" r="1" transform="matrix(0 1 -1 0 821.9289 627.0571)"/><circle cx="97.4359" cy="750.38" r="1" transform="matrix(0 1 -1 0 847.8159 652.9441)"/><circle cx="97.4359" cy="776.268" r="1" transform="matrix(0 1 -1 0 873.7039 678.8321)"/><circle cx="97.4359" cy="802.155" r="1" transform="matrix(0 1 -1 0 899.5909 704.7191)"/><circle cx="97.4359" cy="828.042" r="1" transform="matrix(0 1 -1 0 925.4779 730.6061)"/><circle cx="97.4359" cy="853.93" r="1" transform="matrix(0 1 -1 0 951.3659 756.4941)"/><circle cx="97.4359" cy="879.817" r="1" transform="matrix(0 1 -1 0 977.2529 782.3811)"/><circle cx="97.4359" cy="905.704" r="1" transform="matrix(0 1 -1 0 1003.1399 808.2681)"/><circle cx="97.4359" cy="931.592" r="1" transform="matrix(0 1 -1 0 1029.0279 834.1561)"/><circle cx="97.4359" cy="957.479" r="1" transform="matrix(0 1 -1 0 1054.9149 860.0431)"/><circle cx="97.4359" cy="983.366" r="1" transform="matrix(0 1 -1 0 1080.8019 885.9301)"/><circle cx="97.4359" cy="1009.25" r="1" transform="matrix(0 1 -1 0 1106.6859 911.8141)"/><circle cx="97.4359" cy="1035.14" r="1" transform="matrix(0 1 -1 0 1132.5759 937.7041)"/><circle cx="97.4359" cy="1061.03" r="1" transform="matrix(0 1 -1 0 1158.4659 963.5941)"/><circle cx="97.4358" cy="1086.92" r="1" transform="matrix(0 1 -1 0 1184.3558 989.4842)"/><circle cx="97.4358" cy="1112.8" r="1" transform="matrix(0 1 -1 0 1210.2358 1015.3642)"/><circle cx="97.4358" cy="1138.69" r="1" transform="matrix(0 1 -1 0 1236.1258 1041.2542)"/><circle cx="97.4358" cy="1164.58" r="1" transform="matrix(0 1 -1 0 1262.0158 1067.1442)"/><circle cx="97.4358" cy="1190.46" r="1" transform="matrix(0 1 -1 0 1287.8958 1093.0242)"/><circle cx="97.4358" cy="1216.35" r="1" transform="matrix(0 1 -1 0 1313.7858 1118.9142)"/><circle cx="71.8462" cy="-.352051" r="1" transform="matrix(0 1 -1 0 71.494149 -72.198251)"/><circle cx="71.8462" cy="25.5352" r="1" transform="matrix(0 1 -1 0 97.3814 -46.311)"/><circle cx="71.8462" cy="51.4226" r="1" transform="matrix(0 1 -1 0 123.2688 -20.4236)"/><circle cx="71.8462" cy="77.3098" r="1" transform="matrix(0 1 -1 0 149.156 5.4636)"/><circle cx="71.8462" cy="103.197" r="1" transform="matrix(0 1 -1 0 175.0432 31.3508)"/><circle cx="71.8462" cy="129.085" r="1" transform="matrix(0 1 -1 0 200.9312 57.2388)"/><circle cx="71.8462" cy="154.972" r="1" transform="matrix(0 1 -1 0 226.8182 83.1258)"/><circle cx="71.8462" cy="180.859" r="1" transform="matrix(0 1 -1 0 252.7052 109.0128)"/><circle cx="71.8462" cy="206.747" r="1" transform="matrix(0 1 -1 0 278.5932 134.9008)"/><circle cx="71.8462" cy="232.634" r="1" transform="matrix(0 1 -1 0 304.4802 160.7878)"/><circle cx="71.8462" cy="258.521" r="1" transform="matrix(0 1 -1 0 330.3672 186.6748)"/><circle cx="71.8462" cy="284.408" r="1" transform="matrix(0 1 -1 0 356.2542 212.5618)"/><circle cx="71.8462" cy="310.296" r="1" transform="matrix(0 1 -1 0 382.1422 238.4498)"/><circle cx="71.8462" cy="336.183" r="1" transform="matrix(0 1 -1 0 408.0292 264.3368)"/><circle cx="71.8462" cy="362.071" r="1" transform="matrix(0 1 -1 0 433.9172 290.2248)"/><circle cx="71.8462" cy="387.958" r="1" transform="matrix(0 1 -1 0 459.8042 316.1118)"/><circle cx="71.8462" cy="413.845" r="1" transform="matrix(0 1 -1 0 485.6912 341.9988)"/><circle cx="71.8462" cy="439.732" r="1" transform="matrix(0 1 -1 0 511.5782 367.8858)"/><circle cx="71.8462" cy="465.62" r="1" transform="matrix(0 1 -1 0 537.4662 393.7738)"/><circle cx="71.8462" cy="491.507" r="1" transform="matrix(0 1 -1 0 563.3532 419.6608)"/><circle cx="71.8462" cy="517.395" r="1" transform="matrix(0 1 -1 0 589.2412 445.5488)"/><circle cx="71.8462" cy="543.282" r="1" transform="matrix(0 1 -1 0 615.1282 471.4358)"/><circle cx="71.8462" cy="569.169" r="1" transform="matrix(0 1 -1 0 641.0152 497.3228)"/><circle cx="71.8462" cy="595.056" r="1" transform="matrix(0 1 -1 0 666.9022 523.2098)"/><circle cx="71.8462" cy="620.944" r="1" transform="matrix(0 1 -1 0 692.7902 549.0978)"/><circle cx="71.8462" cy="646.831" r="1" transform="matrix(0 1 -1 0 718.6772 574.9848)"/><circle cx="71.8462" cy="672.719" r="1" transform="matrix(0 1 -1 0 744.5652 600.8728)"/><circle cx="71.8462" cy="698.606" r="1" transform="matrix(0 1 -1 0 770.4522 626.7598)"/><circle cx="71.8462" cy="724.493" r="1" transform="matrix(0 1 -1 0 796.3392 652.6468)"/><circle cx="71.8462" cy="750.38" r="1" transform="matrix(0 1 -1 0 822.2262 678.5338)"/><circle cx="71.8462" cy="776.268" r="1" transform="matrix(0 1 -1 0 848.1142 704.4218)"/><circle cx="71.8462" cy="802.155" r="1" transform="matrix(0 1 -1 0 874.0012 730.3088)"/><circle cx="71.8462" cy="828.042" r="1" transform="matrix(0 1 -1 0 899.8882 756.1958)"/><circle cx="71.8462" cy="853.93" r="1" transform="matrix(0 1 -1 0 925.7762 782.0838)"/><circle cx="71.8462" cy="879.817" r="1" transform="matrix(0 1 -1 0 951.6632 807.9708)"/><circle cx="71.8462" cy="905.704" r="1" transform="matrix(0 1 -1 0 977.5502 833.8578)"/><circle cx="71.8462" cy="931.592" r="1" transform="matrix(0 1 -1 0 1003.4382 859.7458)"/><circle cx="71.8462" cy="957.479" r="1" transform="matrix(0 1 -1 0 1029.3252 885.6328)"/><circle cx="71.8462" cy="983.366" r="1" transform="matrix(0 1 -1 0 1055.2122 911.5198)"/><circle cx="71.8462" cy="1009.25" r="1" transform="matrix(0 1 -1 0 1081.0962 937.4038)"/><circle cx="71.8462" cy="1035.14" r="1" transform="matrix(0 1 -1 0 1106.9862 963.2938)"/><circle cx="71.8462" cy="1061.03" r="1" transform="matrix(0 1 -1 0 1132.8762 989.1838)"/><circle cx="71.8461" cy="1086.92" r="1" transform="matrix(0 1 -1 0 1158.7661 1015.0739)"/><circle cx="71.8461" cy="1112.8" r="1" transform="matrix(0 1 -1 0 1184.6461 1040.9539)"/><circle cx="71.8461" cy="1138.69" r="1" transform="matrix(0 1 -1 0 1210.5361 1066.8439)"/><circle cx="71.8461" cy="1164.58" r="1" transform="matrix(0 1 -1 0 1236.4261 1092.7339)"/><circle cx="71.8461" cy="1190.46" r="1" transform="matrix(0 1 -1 0 1262.3061 1118.6139)"/><circle cx="71.8461" cy="1216.35" r="1" transform="matrix(0 1 -1 0 1288.1961 1144.5039)"/><circle cx="46.2565" cy="-.352051" r="1" transform="matrix(0 1 -1 0 45.904449 -46.608551)"/><circle cx="46.2565" cy="25.5352" r="1" transform="matrix(0 1 -1 0 71.7917 -20.7213)"/><circle cx="46.2565" cy="51.4226" r="1" transform="matrix(0 1 -1 0 97.6791 5.1661)"/><circle cx="46.2565" cy="77.3098" r="1" transform="matrix(0 1 -1 0 123.5663 31.0533)"/><circle cx="46.2565" cy="103.197" r="1" transform="matrix(0 1 -1 0 149.4535 56.9405)"/><circle cx="46.2565" cy="129.085" r="1" transform="matrix(0 1 -1 0 175.3415 82.8285)"/><circle cx="46.2565" cy="154.972" r="1" transform="matrix(0 1 -1 0 201.2285 108.7155)"/><circle cx="46.2565" cy="180.859" r="1" transform="matrix(0 1 -1 0 227.1155 134.6025)"/><circle cx="46.2565" cy="206.747" r="1" transform="matrix(0 1 -1 0 253.0035 160.4905)"/><circle cx="46.2565" cy="232.634" r="1" transform="matrix(0 1 -1 0 278.8905 186.3775)"/><circle cx="46.2565" cy="258.521" r="1" transform="matrix(0 1 -1 0 304.7775 212.2645)"/><circle cx="46.2565" cy="284.408" r="1" transform="matrix(0 1 -1 0 330.6645 238.1515)"/><circle cx="46.2565" cy="310.296" r="1" transform="matrix(0 1 -1 0 356.5525 264.0395)"/><circle cx="46.2565" cy="336.183" r="1" transform="matrix(0 1 -1 0 382.4395 289.9265)"/><circle cx="46.2565" cy="362.071" r="1" transform="matrix(0 1 -1 0 408.3275 315.8145)"/><circle cx="46.2565" cy="387.958" r="1" transform="matrix(0 1 -1 0 434.2145 341.7015)"/><circle cx="46.2565" cy="413.845" r="1" transform="matrix(0 1 -1 0 460.1015 367.5885)"/><circle cx="46.2565" cy="439.732" r="1" transform="matrix(0 1 -1 0 485.9885 393.4755)"/><circle cx="46.2565" cy="465.62" r="1" transform="matrix(0 1 -1 0 511.8765 419.3635)"/><circle cx="46.2565" cy="491.507" r="1" transform="matrix(0 1 -1 0 537.7635 445.2505)"/><circle cx="46.2565" cy="517.395" r="1" transform="matrix(0 1 -1 0 563.6515 471.1385)"/><circle cx="46.2565" cy="543.282" r="1" transform="matrix(0 1 -1 0 589.5385 497.0255)"/><circle cx="46.2565" cy="569.169" r="1" transform="matrix(0 1 -1 0 615.4255 522.9125)"/><circle cx="46.2565" cy="595.056" r="1" transform="matrix(0 1 -1 0 641.3125 548.7995)"/><circle cx="46.2565" cy="620.944" r="1" transform="matrix(0 1 -1 0 667.2005 574.6875)"/><circle cx="46.2565" cy="646.831" r="1" transform="matrix(0 1 -1 0 693.0875 600.5745)"/><circle cx="46.2565" cy="672.719" r="1" transform="matrix(0 1 -1 0 718.9755 626.4625)"/><circle cx="46.2565" cy="698.606" r="1" transform="matrix(0 1 -1 0 744.8625 652.3495)"/><circle cx="46.2565" cy="724.493" r="1" transform="matrix(0 1 -1 0 770.7495 678.2365)"/><circle cx="46.2565" cy="750.38" r="1" transform="matrix(0 1 -1 0 796.6365 704.1235)"/><circle cx="46.2565" cy="776.268" r="1" transform="matrix(0 1 -1 0 822.5245 730.0115)"/><circle cx="46.2565" cy="802.155" r="1" transform="matrix(0 1 -1 0 848.4115 755.8985)"/><circle cx="46.2565" cy="828.042" r="1" transform="matrix(0 1 -1 0 874.2985 781.7855)"/><circle cx="46.2565" cy="853.93" r="1" transform="matrix(0 1 -1 0 900.1865 807.6735)"/><circle cx="46.2565" cy="879.817" r="1" transform="matrix(0 1 -1 0 926.0735 833.5605)"/><circle cx="46.2565" cy="905.704" r="1" transform="matrix(0 1 -1 0 951.9605 859.4475)"/><circle cx="46.2565" cy="931.592" r="1" transform="matrix(0 1 -1 0 977.8485 885.3355)"/><circle cx="46.2565" cy="957.479" r="1" transform="matrix(0 1 -1 0 1003.7355 911.2225)"/><circle cx="46.2565" cy="983.366" r="1" transform="matrix(0 1 -1 0 1029.6225 937.1095)"/><circle cx="46.2565" cy="1009.25" r="1" transform="matrix(0 1 -1 0 1055.5065 962.9935)"/><circle cx="46.2565" cy="1035.14" r="1" transform="matrix(0 1 -1 0 1081.3965 988.8835)"/><circle cx="46.2565" cy="1061.03" r="1" transform="matrix(0 1 -1 0 1107.2865 1014.7735)"/><circle cx="46.2563" cy="1086.92" r="1" transform="matrix(0 1 -1 0 1133.1763 1040.6637)"/><circle cx="46.2563" cy="1112.8" r="1" transform="matrix(0 1 -1 0 1159.0563 1066.5437)"/><circle cx="46.2563" cy="1138.69" r="1" transform="matrix(0 1 -1 0 1184.9463 1092.4337)"/><circle cx="46.2563" cy="1164.58" r="1" transform="matrix(0 1 -1 0 1210.8363 1118.3237)"/><circle cx="46.2563" cy="1190.46" r="1" transform="matrix(0 1 -1 0 1236.7163 1144.2037)"/><circle cx="46.2563" cy="1216.35" r="1" transform="matrix(0 1 -1 0 1262.6063 1170.0937)"/><circle cx="20.6667" cy="-.352051" r="1" transform="matrix(0 1 -1 0 20.314649 -21.018751)"/><circle cx="20.6667" cy="25.5352" r="1" transform="matrix(0 1 -1 0 46.2019 4.8685)"/><circle cx="20.6667" cy="51.4226" r="1" transform="matrix(0 1 -1 0 72.0893 30.7559)"/><circle cx="20.6667" cy="77.3098" r="1" transform="matrix(0 1 -1 0 97.9765 56.6431)"/><circle cx="20.6667" cy="103.197" r="1" transform="matrix(0 1 -1 0 123.8637 82.5303)"/><circle cx="20.6667" cy="129.085" r="1" transform="matrix(0 1 -1 0 149.7517 108.4183)"/><circle cx="20.6667" cy="154.972" r="1" transform="matrix(0 1 -1 0 175.6387 134.3053)"/><circle cx="20.6667" cy="180.859" r="1" transform="matrix(0 1 -1 0 201.5257 160.1923)"/><circle cx="20.6667" cy="206.747" r="1" transform="matrix(0 1 -1 0 227.4137 186.0803)"/><circle cx="20.6667" cy="232.634" r="1" transform="matrix(0 1 -1 0 253.3007 211.9673)"/><circle cx="20.6667" cy="258.521" r="1" transform="matrix(0 1 -1 0 279.1877 237.8543)"/><circle cx="20.6667" cy="284.408" r="1" transform="matrix(0 1 -1 0 305.0747 263.7413)"/><circle cx="20.6667" cy="310.296" r="1" transform="matrix(0 1 -1 0 330.9627 289.6293)"/><circle cx="20.6667" cy="336.183" r="1" transform="matrix(0 1 -1 0 356.8497 315.5163)"/><circle cx="20.6667" cy="362.071" r="1" transform="matrix(0 1 -1 0 382.7377 341.4043)"/><circle cx="20.6667" cy="387.958" r="1" transform="matrix(0 1 -1 0 408.6247 367.2913)"/><circle cx="20.6667" cy="413.845" r="1" transform="matrix(0 1 -1 0 434.5117 393.1783)"/><circle cx="20.6667" cy="439.732" r="1" transform="matrix(0 1 -1 0 460.3987 419.0653)"/><circle cx="20.6667" cy="465.62" r="1" transform="matrix(0 1 -1 0 486.2867 444.9533)"/><circle cx="20.6667" cy="491.507" r="1" transform="matrix(0 1 -1 0 512.1737 470.8403)"/><circle cx="20.6667" cy="517.395" r="1" transform="matrix(0 1 -1 0 538.0617 496.7283)"/><circle cx="20.6667" cy="543.282" r="1" transform="matrix(0 1 -1 0 563.9487 522.6153)"/><circle cx="20.6667" cy="569.169" r="1" transform="matrix(0 1 -1 0 589.8357 548.5023)"/><circle cx="20.6667" cy="595.056" r="1" transform="matrix(0 1 -1 0 615.7227 574.3893)"/><circle cx="20.6667" cy="620.944" r="1" transform="matrix(0 1 -1 0 641.6107 600.2773)"/><circle cx="20.6667" cy="646.831" r="1" transform="matrix(0 1 -1 0 667.4977 626.1643)"/><circle cx="20.6667" cy="672.719" r="1" transform="matrix(0 1 -1 0 693.3857 652.0523)"/><circle cx="20.6667" cy="698.606" r="1" transform="matrix(0 1 -1 0 719.2727 677.9393)"/><circle cx="20.6667" cy="724.493" r="1" transform="matrix(0 1 -1 0 745.1597 703.8263)"/><circle cx="20.6667" cy="750.38" r="1" transform="matrix(0 1 -1 0 771.0467 729.7133)"/><circle cx="20.6667" cy="776.268" r="1" transform="matrix(0 1 -1 0 796.9347 755.6013)"/><circle cx="20.6667" cy="802.155" r="1" transform="matrix(0 1 -1 0 822.8217 781.4883)"/><circle cx="20.6667" cy="828.042" r="1" transform="matrix(0 1 -1 0 848.7087 807.3753)"/><circle cx="20.6667" cy="853.93" r="1" transform="matrix(0 1 -1 0 874.5967 833.2633)"/><circle cx="20.6667" cy="879.817" r="1" transform="matrix(0 1 -1 0 900.4837 859.1503)"/><circle cx="20.6667" cy="905.704" r="1" transform="matrix(0 1 -1 0 926.3707 885.0373)"/><circle cx="20.6667" cy="931.592" r="1" transform="matrix(0 1 -1 0 952.2587 910.9253)"/><circle cx="20.6667" cy="957.479" r="1" transform="matrix(0 1 -1 0 978.1457 936.8123)"/><circle cx="20.6667" cy="983.366" r="1" transform="matrix(0 1 -1 0 1004.0327 962.6993)"/><circle cx="20.6667" cy="1009.25" r="1" transform="matrix(0 1 -1 0 1029.9167 988.5833)"/><circle cx="20.6667" cy="1035.14" r="1" transform="matrix(0 1 -1 0 1055.8067 1014.4733)"/><circle cx="20.6667" cy="1061.03" r="1" transform="matrix(0 1 -1 0 1081.6967 1040.3633)"/><circle cx="20.6666" cy="1086.92" r="1" transform="matrix(0 1 -1 0 1107.5866 1066.2534)"/><circle cx="20.6666" cy="1112.8" r="1" transform="matrix(0 1 -1 0 1133.4666 1092.1334)"/><circle cx="20.6666" cy="1138.69" r="1" transform="matrix(0 1 -1 0 1159.3566 1118.0234)"/><circle cx="20.6666" cy="1164.58" r="1" transform="matrix(0 1 -1 0 1185.2466 1143.9134)"/><circle cx="20.6666" cy="1190.46" r="1" transform="matrix(0 1 -1 0 1211.1266 1169.7934)"/><circle cx="20.6666" cy="1216.35" r="1" transform="matrix(0 1 -1 0 1237.0166 1195.6834)"/></g></g><g filter="url(#b)" opacity=".3"><ellipse cx="404.064" cy="4.9728" fill="#9bc3ff" rx="391.5" ry="183.656" transform="matrix(.8660254 .5 -.5 .8660254 56.620711 -201.365771)"/></g><g filter="url(#c)" opacity=".3"><ellipse cx="340.469" cy="15.1222" fill="#9bc3ff" rx="176.5" ry="82.696" transform="matrix(.8660254 .5 -.5 .8660254 53.175297 -168.208509)"/></g><g filter="url(#d)" opacity=".3"><ellipse cx="391.5" cy="130.639" fill="#ffe2e6" rx="391.5" ry="130.639" transform="matrix(-.866025 -.5 -.5 .866025 340.797 13.554)"/></g><g filter="url(#e)" opacity=".6"><ellipse cx="176.5" cy="58.8512" fill="#ffe2e6" rx="176.5" ry="58.8512" transform="matrix(-.866025 -.5 -.5 .866025 147.676 18.0488)"/></g></g></svg>