<svg fill="none" height="14" viewBox="0 0 14 14" width="14" xmlns="http://www.w3.org/2000/svg"><path d="m.292893.292893c.390524-.3905241 1.023687-.3905241 1.414217 0l5.29289 5.292897 5.2929-5.292897c.3905-.3905241 1.0237-.3905241 1.4142 0 .3905.390524.3905 1.023687 0 1.414217l-5.29289 5.29289 5.29289 5.2929c.3905.3905.3905 1.0237 0 1.4142s-1.0237.3905-1.4142 0l-5.2929-5.29289-5.29289 5.29289c-.39053.3905-1.023693.3905-1.414217 0-.3905241-.3905-.3905241-1.0237 0-1.4142l5.292897-5.2929-5.292897-5.29289c-.3905241-.39053-.3905241-1.023693 0-1.414217z" fill="#000"/></svg>
