<svg fill="none" height="20" viewBox="0 0 20 20" width="20" xmlns="http://www.w3.org/2000/svg"><g fill="#000"><path d="m11.7044 15.5403c0 .94-.7627 1.7027-1.7028 1.7027-.94005 0-1.70277-.7627-1.70277-1.7027 0-.9401.76272-1.7017 1.70277-1.7017.9401 0 1.7028.7616 1.7028 1.7017z"/><path d="m14.7101 12.1937c-2.5962-2.59617-6.81796-2.59617-9.4142 0l1.23332 1.2334c1.91418-1.9142 5.03098-1.9142 6.94628 0z"/><path d="m17.3553 9.54628c-1.9642-1.9642-4.5742-3.04408-7.3534-3.04408-2.77933 0-5.38925 1.08215-7.35346 3.04641l1.23332 1.23329c1.6357-1.63567 3.8091-2.53479 6.11984-2.53479 2.3108 0 4.4843.89912 6.1199 2.53479z"/></g></svg>