<svg fill="none" height="18" viewBox="0 0 21 18" width="21" xmlns="http://www.w3.org/2000/svg" xmlns:xlink="http://www.w3.org/1999/xlink"><linearGradient id="a"><stop offset="0" stop-color="#fff"/><stop offset="1" stop-color="#ececec"/></linearGradient><radialGradient id="b" cx="0" cy="0" gradientTransform="matrix(-2.93667635 10.05763559 -11.1247763 -3.24826518 8.9334 2.21707)" gradientUnits="userSpaceOnUse" r="1" xlink:href="#a"/><radialGradient id="c" cx="0" cy="0" gradientTransform="matrix(-2.46085013 8.36826105 -9.31207795 -2.73839787 15.3172 7.91547)" gradientUnits="userSpaceOnUse" r="1" xlink:href="#a"/><g clip-rule="evenodd" fill-rule="evenodd"><path d="m1.93421 13.6184c.07895.0658.18421.0921.28947.0921.03948 0 .07895-.0066.11842-.0131h.00002c.03947-.0066.07894-.0132.11841-.0132l1.65789-.8684c1.10976.5936 2.38404.9088 3.68632.9207-.17491-.549-.26902-1.1311-.26902-1.7363 0-3.48829 3.14078-6.22746 6.83268-6.22746.2527 0 .5028.01278.7497.03771-.2906-1.29635-1.0054-2.48726-2.0786-3.42887-1.3948-1.21053-3.22371-1.88158-5.15792-1.88158-4.07895 0-7.38158 2.96053-7.38158 6.60526 0 1.48684.55263 2.92104 1.56579 4.07894l-.32895 1.9474c-.03947.1842.03948.3684.19737.4868zm2.4342-8.64506c-.00002.11578.02277.23043.06706.33741.0443.10697.10923.20417.19109.28605.08187.08188.17906.14683.28603.19114.10696.04432.22161.06712.3374.06712.11578 0 .23043-.0228.3374-.06712.10696-.04431.20416-.10926.28602-.19114s.1468-.17908.19109-.28605c.0443-.10698.06708-.22163.06707-.33741.00001-.11579-.02277-.23044-.06707-.33742-.04429-.10697-.10923-.20417-.19109-.28605s-.17906-.14683-.28602-.19114c-.10697-.04431-.22162-.06712-.3374-.06712-.11579 0-.23044.02281-.3374.06712-.10697.04431-.20416.10926-.28603.19114-.08186.08188-.14679.17908-.19109.28605-.04429.10698-.06708.22163-.06706.33742zm5.50821.62322c-.16533-.16533-.25821-.38956-.25821-.62337s.09288-.45805.25821-.62337c.16528-.16533.38958-.25821.62338-.25821s.458.09288.6234.25821c.1653.16532.2582.38956.2582.62337s-.0929.45804-.2582.62337c-.1654.16533-.3896.2582-.6234.2582s-.4581-.09287-.62338-.2582z" fill="url(#b)"/><path d="m19 17.4868c-.079 0-.1579-.0131-.2368-.0526l-1.3158-.6842c-.9342.4868-1.9869.75-3.079.75-3.3816 0-6.1184-2.4737-6.1184-5.5 0-3.02634 2.75-5.51318 6.1184-5.51318s6.1316 2.47368 6.1316 5.49998c0 1.2105-.4474 2.3948-1.2763 3.3553l.2631 1.5526c.0264.1842-.0394.3816-.1973.4869-.079.0789-.1842.1052-.2895.1052zm-7.6316-6.8949c0 .0985.0194.1961.0571.2871.0376.091.0929.1737.1625.2434.0697.0696.1524.1249.2434.1626s.1885.0571.287.0571.196-.0194.2871-.0571c.091-.0377.1736-.093.2433-.1626.0696-.0697.1249-.1524.1626-.2434.0376-.091.057-.1886.057-.2871s-.0194-.196-.057-.287c-.0377-.091-.093-.1737-.1626-.2434-.0697-.06964-.1523-.1249-.2433-.1626-.0911-.0377-.1886-.0571-.2871-.0571s-.196.0194-.287.0571-.1737.09296-.2434.1626c-.0696.0697-.1249.1524-.1625.2434-.0377.091-.0571.1885-.0571.287zm4.5702.2871c-.0377-.091-.0571-.1886-.057-.2871-.0001-.0985.0193-.196.057-.287s.0929-.1737.1626-.2434c.0696-.06964.1523-.1249.2433-.1626s.1885-.0571.2871-.0571c.0985 0 .196.0194.287.0571s.1737.09296.2433.1626c.0697.0697.1249.1524.1626.2434s.0571.1885.0571.287-.0194.1961-.0571.2871-.0929.1737-.1626.2434c-.0696.0696-.1523.1249-.2433.1626s-.1885.0571-.287.0571c-.0986 0-.1961-.0194-.2871-.0571s-.1737-.093-.2433-.1626c-.0697-.0697-.1249-.1524-.1626-.2434z" fill="url(#c)"/></g></svg>